<?xml version="1.0" encoding="UTF-8"?>
<svg width="512" height="512" fill="#f0f0f0" version="1.1" viewBox="0 0 135.47 135.47" xmlns="http://www.w3.org/2000/svg" xmlns:cc="http://creativecommons.org/ns#" xmlns:dc="http://purl.org/dc/elements/1.1/" xmlns:rdf="http://www.w3.org/1999/02/22-rdf-syntax-ns#">
	<g transform="translate(-131.98 -234.61)">
		<g transform="matrix(2.3599 0 0 2.4698 -174.76 -317.3)">
			<path d="m143.82 270.48c-1.708-0.55001-3.0186-1.9311-3.5898-3.7826l-0.18364-0.59531h10.685l-0.16756 0.8378c-0.53005 2.6502-3.9435 4.442-6.7442 3.5402zm31.83 0.14177c-1.8623-0.45864-3.5405-2.0647-3.9624-3.7921l-0.17769-0.72761h5.3204c3.4809 0 5.3204-0.0276 5.3204-0.0276 0 1.0925-1.5463 3.4272-2.9049 4.1219-0.91078 0.4657-2.6139 0.66719-3.5957 0.4254zm-40.878-5.7325c-0.25187-0.30349-0.27135-0.54063-0.0706-0.8599 0.22984-0.36557 0.90482-0.46343 3.9534-0.57313 2.0219-0.0728 3.8251-0.22862 4.007-0.34635 0.43399-0.28088 0.4229-1.0999-0.0199-1.4673-0.22014-0.1827-2.2031-0.31782-5.3292-0.36313-4.2426-0.0615-5.0184-0.13528-5.2478-0.49921-0.14801-0.23488-0.19436-0.62183-0.10301-0.8599 0.14786-0.38532 0.91894-0.43283 7.0242-0.43283 6.2337 0 6.4194 0.0898 7.3767-0.2803 0.63912-0.30073 0.65923-1.796-0.28319-1.8505-0.47932-0.0277-1.4732 0.0141-3.7363 0.0141-2.2386 0-4.2584-0.0723-4.4886-0.1606-0.49766-0.19097-0.55842-1.3051-0.0878-1.6097 0.1819-0.11773 1.5809-0.27359 3.1088-0.34635l2.7698-0.13229c1.1206-0.15217 0.99005-1.52-0.0167-1.5624l-3.7368-0.15734c-2.8941-0.12186-3.8551-0.22573-4.1663-0.53772-0.36281-0.36373-0.36213-0.46577 7e-3 -0.99219 0.35833-0.51159 0.6499-0.58676 2.276-0.58676 1.5953 0 1.9769-0.0941 2.6386-0.65093 0.42547-0.35801 1.157-0.72178 1.6257-0.80838s4.1476-0.1211 8.1755-0.0767c6.9148 0.0763 7.3641 0.1112 8.0531 0.62604 1.5166 1.1332 1.3832 3.0476-0.28407 4.078-0.72788 0.44985-0.95558 0.87002-1.5564 2.8719-0.38706 1.2897-0.70375 2.5777-0.70375 2.8621 0 1.0921 0.36065 1.1521 6.9228 1.1521 7.2271 0 6.8356 0.14763 6.8356-2.5774 0-1.485-0.71858-5.9838-1.3331-8.3463-0.1595-0.61318-0.40564-1.5614-0.54698-2.1071l-0.25697-0.99219h-1.5947c-1.7132 0-2.6182-0.32009-2.6182-0.92604 0-0.61035 0.90709-0.92536 2.6946-0.93576 0.91907-5e-3 2.48-0.16628 3.4687-0.35761 2.01-0.38898 1.9327-0.43416 2.5537 1.4918 0.29392 0.91154 0.39999 0.99219 1.3048 0.99219 1.3183 0 1.6199 0.37655 1.6199 2.0223 0 1.081-0.11525 1.468-0.52196 1.7529-0.5108 0.35778-0.49726 0.42993 0.63304 3.3729l1.155 3.0073 1.6382 0.33417c1.9763 0.40314 3.7139 1.3744 4.6468 2.5975 0.75706 0.99256 1.7034 3.3196 1.7034 4.149 0 0.52161-0.21465 0.49089-24.568 0.49089-22.099 0-24.609-0.0422-24.922-0.41905zm7.1622-24.059v-7.8092l7.7391 0.0701 7.7391 0.0702 0.0701 7.7391 0.0702 7.7391h-15.618zm14.552 4e-3v-6.7469h-4.7625v1.5875c0 0.9729-2e-3 1.9104-2e-3 1.9104s-0.77027-0.51792-1.3403-0.76759c-0.42549-0.18635-0.85166-0.21635-1.2499-0.0388-0.45187 0.20142-1.3853 0.73968-1.3853 0.73968s9e-3 -0.76556 9e-3 -1.7114v-1.7198h-4.7625v13.494h13.494v-6.7469z" stroke-width=".26458"/>
		</g>
 	</g>
</svg>
