<?xml version="1.0" standalone="no"?>
<!DOCTYPE svg PUBLIC "-//W3C//DTD SVG 20010904//EN"
 "http://www.w3.org/TR/2001/REC-SVG-20010904/DTD/svg10.dtd">
<svg version="1.0" xmlns="http://www.w3.org/2000/svg"
 width="500.000000pt" height="500.000000pt" viewBox="0 0 500.000000 500.000000"
 preserveAspectRatio="xMidYMid meet">
<metadata>
Created by potrace 1.11, written by Peter Selinger 2001-2013
</metadata>
<g transform="translate(0.000000,500.000000) scale(0.100000,-0.100000)"
fill="#000000" stroke="none">
<path d="M3325 4704 c-124 -30 -229 -107 -279 -204 -54 -102 -62 -188 -33
-310 30 -124 158 -473 238 -648 16 -35 29 -66 29 -69 0 -2 14 -34 30 -70 17
-36 40 -89 52 -117 12 -28 25 -55 29 -60 21 -24 307 665 378 909 57 196 36
321 -76 445 -67 74 -167 121 -269 125 -44 2 -88 2 -99 -1z m182 -113 c79 -41
131 -118 137 -204 7 -96 -40 -185 -124 -235 -38 -23 -56 -27 -120 -26 -111 0
-183 46 -226 142 -39 89 -27 181 32 256 69 86 206 117 301 67z"/>
<path d="M1775 3895 c-71 -19 -184 -48 -250 -65 -66 -17 -127 -33 -135 -35
-48 -10 -586 -148 -588 -151 -3 -2 -5 -2803 -3 -2912 1 -19 5 -22 29 -18 15 3
47 8 72 11 25 3 70 10 100 15 30 5 75 11 100 14 25 4 54 8 66 10 12 2 45 7 75
11 30 3 61 8 69 10 8 2 38 6 65 10 43 5 115 16 205 30 14 2 45 7 70 10 25 3
56 8 70 10 196 29 234 32 290 20 14 -3 45 -7 70 -10 25 -3 56 -8 70 -10 38 -7
80 -13 130 -20 25 -3 56 -8 70 -10 14 -2 43 -7 65 -10 22 -3 67 -10 100 -15
33 -5 83 -12 110 -15 28 -3 61 -8 75 -10 14 -3 43 -7 65 -11 22 -3 51 -7 65
-10 14 -2 48 -7 75 -10 28 -3 67 -10 88 -14 44 -9 118 -6 202 8 67 12 106 18
180 27 28 4 88 12 135 20 47 8 109 17 139 20 30 4 63 9 75 11 12 2 41 7 66 10
25 2 72 9 105 14 33 5 78 12 100 15 22 4 51 8 65 11 14 2 50 6 80 10 30 3 57
9 60 14 7 11 5 3039 -2 3045 -3 3 -104 -19 -224 -50 -121 -31 -230 -58 -244
-61 -14 -3 -28 -8 -31 -12 -3 -4 -25 -56 -49 -117 -23 -60 -51 -128 -60 -150
-10 -22 -32 -74 -50 -115 -18 -41 -42 -97 -55 -125 -12 -27 -35 -78 -50 -112
-25 -57 -45 -80 -45 -53 0 5 -16 45 -36 87 -32 70 -163 375 -185 430 -8 21
-10 22 -52 9 -40 -12 -53 -10 -178 21 -73 19 -141 36 -149 37 -8 2 -69 18
-135 35 -66 17 -129 33 -140 35 -11 3 -101 25 -200 51 -99 26 -187 49 -195 51
-8 2 -50 12 -94 24 -43 11 -88 20 -100 19 -11 0 -79 -16 -151 -34z m628 -605
c5 -19 -2 -34 -18 -36 -5 -1 -31 -4 -57 -7 -47 -6 -118 -36 -150 -65 -16 -14
-20 -13 -38 3 -20 18 -20 18 -1 37 45 41 149 81 225 85 25 1 35 -3 39 -17z
m207 -7 c25 -8 68 -25 97 -39 51 -25 52 -27 37 -49 l-15 -23 -57 29 c-32 16
-87 35 -122 42 -59 12 -65 16 -68 41 -3 26 -3 26 40 20 24 -4 63 -13 88 -21z
m186 -283 l-1 -135 -35 0 -35 0 -3 124 c-1 69 -1 130 2 136 2 6 20 11 39 11
l35 -1 -2 -135z m-631 -24 c0 -78 -3 -130 -10 -134 -5 -3 -22 -7 -37 -8 -33
-3 -34 5 -30 162 l3 110 37 -1 36 -1 1 -128z m1265 103 c1 -16 1 -69 1 -119 0
-49 0 -98 -1 -108 0 -15 -8 -18 -37 -17 l-38 1 -1 129 c0 72 1 132 2 135 1 3
18 6 38 6 33 1 36 -1 36 -27z m-1599 -18 c3 0 6 -117 6 -259 l0 -259 -346 0
-346 0 1 256 c1 141 2 258 3 261 1 4 661 5 682 1z m958 -261 c4 0 8 -61 8
-135 l-1 -135 -38 0 -38 0 0 134 c0 120 2 135 18 139 9 3 23 3 30 1 8 -2 17
-4 21 -4z m642 -146 c0 -172 4 -156 -38 -152 l-38 4 0 131 -1 132 31 3 c16 2
34 1 38 -3 5 -3 8 -55 8 -115z m-1266 -18 l0 -135 -37 1 -38 0 -1 54 c0 30 0
83 0 119 0 36 0 72 0 80 1 11 12 15 39 15 l37 0 0 -134z m-635 -302 l0 -135
-37 3 -38 3 -2 133 -2 132 40 0 39 0 0 -136z m1267 1 l0 -135 -38 0 -39 0 0
135 0 135 38 0 38 0 1 -135z m-632 -30 l0 -135 -40 0 -40 0 2 117 c1 65 2 126
2 136 1 13 10 17 39 17 l37 0 0 -135z m1268 65 c-1 -36 -2 -96 -2 -133 l-1
-68 -37 3 -38 3 -1 125 c0 69 2 129 4 133 2 4 20 7 40 5 l36 -3 -1 -65z
m-1903 -366 l0 -134 -39 0 -39 0 0 134 -1 135 40 -1 39 0 0 -134z m1266 -1 l1
-133 -38 0 -39 0 0 134 0 133 38 -1 37 -1 1 -132z m-641 99 c10 -7 15 -261 5
-263 -63 -10 -74 -1 -72 58 0 18 1 74 1 123 l1 90 28 0 c15 0 32 -4 37 -8z
m1275 1 c1 -5 1 -64 2 -132 0 -127 -4 -143 -41 -136 -9 2 -21 4 -26 4 -6 1
-10 52 -10 136 l0 135 37 0 c21 0 38 -3 38 -7z m-1902 -428 c3 -137 1 -143
-46 -140 l-27 1 -2 135 -2 135 37 -1 37 -1 3 -129z m1266 115 c2 -8 4 -69 3
-135 l-2 -120 -35 0 -35 0 -3 135 -3 136 36 0 c23 0 36 -6 39 -16z m-634 -19
c5 -1 5 -238 1 -263 0 -4 -13 -5 -28 -4 -16 2 -32 4 -38 5 -9 1 -10 37 -6 237
1 28 4 30 34 28 17 -1 34 -2 37 -3z m1266 -4 c4 -4 7 -27 6 -52 0 -25 -1 -83
-1 -129 l-1 -84 -32 3 c-18 2 -35 3 -38 4 -10 2 -6 256 4 263 11 7 53 4 62 -5z
m-1896 -431 l0 -133 -38 -1 -39 -2 -1 134 -2 135 32 3 c18 2 36 2 41 0 4 -2 7
-63 7 -136z m1267 -1 l0 -134 -36 2 -36 2 -3 132 c-3 142 -2 145 54 135 21 -4
21 -9 21 -137z m-632 -24 c0 -67 -2 -127 -6 -132 -3 -6 -21 -9 -39 -7 l-32 3
-2 132 c-1 125 0 132 19 136 11 1 29 0 40 -4 18 -6 20 -15 20 -128z m1266 67
c1 -38 1 -77 1 -88 0 -11 0 -43 -1 -71 l-1 -50 -37 3 -38 3 0 128 c0 137 2
142 49 142 25 0 26 -2 27 -67z m-1824 -292 c28 -14 66 -23 128 -31 11 -1 23
-3 28 -4 4 0 7 -13 7 -27 l0 -27 -62 7 c-60 7 -160 46 -202 80 -19 15 -19 16
-1 36 17 19 18 19 44 1 14 -10 40 -26 58 -35z m1273 0 c45 -20 90 -31 151 -35
4 -1 7 -13 7 -27 0 -26 -1 -26 -62 -20 -69 6 -199 64 -210 93 -11 26 23 47 44
28 8 -8 40 -25 70 -39z m-769 23 c14 -26 11 -29 -91 -68 -76 -30 -166 -47
-173 -33 -11 18 11 46 39 49 46 6 116 29 159 52 49 26 52 26 66 0z m1269 2 c8
-16 4 -22 -26 -40 -50 -30 -147 -61 -196 -64 -32 -2 -41 2 -43 15 -4 21 10 31
45 35 30 4 128 38 167 58 36 19 40 19 53 -4z"/>
<path d="M1331 2996 c-16 -19 -5 -55 20 -65 11 -4 81 -6 155 -6 120 1 135 3
148 21 12 16 13 22 2 39 -12 18 -26 20 -163 23 -123 2 -152 0 -162 -12z"/>
</g>
</svg>
